<svg width="24" height="24" viewBox="0 0 24 24" fill="none" xmlns="http://www.w3.org/2000/svg">
<path fill-rule="evenodd" clip-rule="evenodd" d="M3.00207 15.2715L1.89505 14.1645C1.32188 13.5899 1 12.8115 1 12C1 11.1885 1.32188 10.4101 1.89505 9.83553L3.00207 8.72851C3.12951 8.60168 3.23054 8.45085 3.29934 8.28474C3.36814 8.11863 3.40334 7.94053 3.4029 7.76074V6.46364C3.40385 5.65217 3.72662 4.87421 4.30041 4.30042C4.87421 3.72662 5.65217 3.40385 6.46363 3.40289H7.76074C7.94054 3.40333 8.11863 3.36813 8.28474 3.29934C8.45085 3.23054 8.60168 3.1295 8.72852 3.00207L9.83554 1.89504C10.4101 1.32188 11.1885 1 12 1C12.8115 1 13.5899 1.32188 14.1645 1.89504L15.2715 3.00207C15.3983 3.1295 15.5491 3.23054 15.7153 3.29934C15.8814 3.36813 16.0595 3.40333 16.2393 3.40289H17.5364C18.3478 3.40384 19.1258 3.72662 19.6996 4.30041C20.2734 4.87421 20.5962 5.65217 20.5971 6.46364V7.76075C20.5967 7.94054 20.6319 8.11864 20.7007 8.28475C20.7695 8.45086 20.8705 8.60169 20.9979 8.72852L22.105 9.83554C22.6781 10.4101 23 11.1885 23 12C23 12.8115 22.6781 13.5899 22.105 14.1645L20.9979 15.2715C20.8705 15.3983 20.7695 15.5491 20.7007 15.7153C20.6319 15.8814 20.5967 16.0595 20.5971 16.2393V17.5364C20.5962 18.3478 20.2734 19.1258 19.6996 19.6996C19.1258 20.2734 18.3478 20.5962 17.5364 20.5971H16.2393C16.0595 20.5967 15.8814 20.6319 15.7153 20.7007C15.5491 20.7695 15.3983 20.8705 15.2715 20.9979L14.1645 22.105C13.5899 22.6781 12.8115 23 12 23C11.1885 23 10.4101 22.6781 9.83554 22.105L8.72852 20.9979C8.60168 20.8705 8.45085 20.7695 8.28474 20.7007C8.11863 20.6319 7.94054 20.5967 7.76074 20.5971H6.46364C5.65217 20.5962 4.87421 20.2734 4.30042 19.6996C3.72662 19.1258 3.40385 18.3478 3.4029 17.5364V16.2393C3.40334 16.0595 3.36814 15.8814 3.29934 15.7153C3.23054 15.5491 3.12951 15.3983 3.00207 15.2715ZM10.5476 15.0383C10.445 14.9958 10.3517 14.9334 10.2731 14.8548L8.01654 12.5982C7.86022 12.439 7.77309 12.2245 7.7741 12.0014C7.77511 11.7784 7.86418 11.5647 8.02193 11.4069C8.17968 11.2492 8.39335 11.1601 8.61644 11.1591C8.83954 11.1581 9.054 11.2452 9.21318 11.4015L10.8715 13.0598L14.7868 9.1449C14.8653 9.06606 14.9586 9.00348 15.0613 8.96074C15.1641 8.918 15.2742 8.89595 15.3855 8.89583C15.4968 8.89572 15.607 8.91755 15.7098 8.96008C15.8126 9.00261 15.906 9.06501 15.9847 9.14369C16.0634 9.22237 16.1258 9.31579 16.1683 9.41862C16.2108 9.52144 16.2326 9.63164 16.2325 9.74291C16.2324 9.85418 16.2104 9.96433 16.1676 10.0671C16.1249 10.1698 16.0623 10.2631 15.9834 10.3416L11.4698 14.8548C11.3913 14.9334 11.298 14.9958 11.1953 15.0383C11.0926 15.0808 10.9826 15.1027 10.8715 15.1027C10.7603 15.1027 10.6503 15.0808 10.5476 15.0383Z" fill="#1D9BF0"/>
</svg>